<?xml version="1.0" encoding="UTF-8" standalone="no"?>
<!-- Generator: Adobe Illustrator 16.0.0, SVG Export Plug-In . SVG Version: 6.00 Build 0)  -->

<svg
   xmlns:dc="http://purl.org/dc/elements/1.1/"
   xmlns:cc="http://creativecommons.org/ns#"
   xmlns:rdf="http://www.w3.org/1999/02/22-rdf-syntax-ns#"
   xmlns:svg="http://www.w3.org/2000/svg"
   xmlns="http://www.w3.org/2000/svg"
   xmlns:sodipodi="http://sodipodi.sourceforge.net/DTD/sodipodi-0.dtd"
   xmlns:inkscape="http://www.inkscape.org/namespaces/inkscape"
   version="1.1"
   id="Layer_1"
   x="0px"
   y="0px"
   width="729.58594"
   height="362.56299"
   viewBox="0 0 729.58595 362.56299"
   enable-background="new 0 0 512 512"
   xml:space="preserve"
   sodipodi:docname="logo.svg"
   inkscape:version="0.92.5 (2060ec1f9f, 2020-04-08)"><metadata
   id="metadata23"><rdf:RDF><cc:Work
       rdf:about=""><dc:format>image/svg+xml</dc:format><dc:type
         rdf:resource="http://purl.org/dc/dcmitype/StillImage" /><dc:title></dc:title></cc:Work></rdf:RDF></metadata><defs
   id="defs21" /><sodipodi:namedview
   pagecolor="#ffffff"
   bordercolor="#666666"
   borderopacity="1"
   objecttolerance="10"
   gridtolerance="10"
   guidetolerance="10"
   inkscape:pageopacity="0"
   inkscape:pageshadow="2"
   inkscape:window-width="2560"
   inkscape:window-height="1376"
   id="namedview19"
   showgrid="false"
   inkscape:zoom="0.921875"
   inkscape:cx="-0.3887"
   inkscape:cy="206.03958"
   inkscape:window-x="1920"
   inkscape:window-y="27"
   inkscape:window-maximized="1"
   inkscape:current-layer="Layer_1"
   fit-margin-top="0"
   fit-margin-left="0"
   fit-margin-right="0"
   fit-margin-bottom="0" />


<rect
   style="fill:#d7eef4;fill-opacity:1;stroke:#338000"
   id="rect834"
   width="910.10168"
   height="467.52542"
   x="-66.169495"
   y="-48.555656" /><g
   id="g16"
   style="fill:#338000"
   transform="translate(-50,-74.719)">
	<g
   id="g12"
   style="fill:#338000">
		<path
   d="m 222.012,293.484 v 25.212 L 132.4,279.849 v -21.556 l 89.612,-38.838 v 25.388 l -62.439,24.058 z"
   id="path6"
   style="fill:#338000"
   inkscape:connector-curvature="0" />
		<path
   d="m 277.425,218.919 -24.95,102.713 c -0.83,3.38 -1.554,6.056 -2.178,8.018 -0.624,1.961 -1.569,3.495 -2.847,4.581 -1.277,1.102 -3.133,1.649 -5.572,1.649 -6.05,0 -9.083,-2.62 -9.083,-7.835 0,-1.368 0.593,-4.783 1.78,-10.245 l 24.854,-102.713 c 1.308,-5.461 2.555,-9.204 3.742,-11.22 1.187,-2.019 3.5,-3.03 6.95,-3.03 2.968,0 5.241,0.714 6.81,2.14 1.574,1.426 2.364,3.387 2.364,5.879 10e-4,1.841 -0.628,5.195 -1.87,10.063 z"
   id="path8"
   style="fill:#338000"
   inkscape:connector-curvature="0" />
		<path
   d="m 379.599,279.849 -89.611,39.022 v -25.212 l 62.625,-24.583 -62.625,-24.234 v -25.031 l 89.611,38.658 z"
   id="path10"
   style="fill:#338000"
   inkscape:connector-curvature="0" />
	</g>
	<path
   d="M 437.281,74.719 H 74.719 C 61.069,74.719 50,85.791 50,99.441 v 313.121 c 0,13.645 11.069,24.72 24.719,24.72 h 362.563 c 13.654,0 24.719,-11.075 24.719,-24.72 V 99.441 C 462,85.786 450.935,74.719 437.281,74.719 Z m -61.8,16.481 c 9.082,0 16.48,7.39 16.48,16.481 0,9.088 -7.398,16.479 -16.48,16.479 -9.089,0 -16.481,-7.391 -16.481,-16.479 0,-9.09 7.392,-16.481 16.481,-16.481 z m -45.319,0 c 9.083,0 16.476,7.39 16.476,16.481 0,9.088 -7.393,16.479 -16.476,16.479 -9.088,0 -16.481,-7.391 -16.481,-16.479 C 313.68,98.591 321.074,91.2 330.162,91.2 Z M 437.281,412.562 H 74.719 V 140.641 H 437.282 V 412.562 Z M 420.8,124.16 c -9.083,0 -16.48,-7.391 -16.48,-16.479 0,-9.091 7.397,-16.481 16.48,-16.481 9.083,0 16.481,7.39 16.481,16.481 0,9.088 -7.398,16.479 -16.481,16.479 z"
   id="path14"
   style="fill:#338000"
   inkscape:connector-curvature="0" />
</g>
<text
   xml:space="preserve"
   style="font-style:normal;font-weight:normal;font-size:112.04223633px;line-height:1.25;font-family:sans-serif;letter-spacing:0px;word-spacing:0px;fill:#338000;fill-opacity:1;stroke:none;stroke-width:2.80105615"
   x="384.31076"
   y="83.903641"
   id="text828"
   transform="scale(1.1104459,0.90053914)"><tspan
     sodipodi:role="line"
     x="384.31076"
     y="183.03476"
     style="font-style:normal;font-variant:normal;font-weight:normal;font-stretch:normal;font-family:'Ubuntu Mono';-inkscape-font-specification:'Ubuntu Mono';fill:#338000;fill-opacity:1;stroke-width:2.80105615"
     id="tspan832" /></text>

<text
   xml:space="preserve"
   style="font-style:normal;font-weight:normal;font-size:40px;line-height:1.25;font-family:sans-serif;letter-spacing:0px;word-spacing:0px;fill:#338000;fill-opacity:1;stroke:none;"
   x="420.88135"
   y="125.00366"
   id="text832"><tspan
     sodipodi:role="line"
     id="tspan830"
     x="420.88135"
     y="125.00366"
     style="font-weight:bold;font-size:85.33333588px;fill:#338000;fill-opacity:1;">MCW</tspan><tspan
     sodipodi:role="line"
     x="420.88135"
     y="231.67033"
     id="tspan834"
     style="font-weight:bold;font-size:85.33333588px;fill:#338000;fill-opacity:1;">MSTP</tspan><tspan
     sodipodi:role="line"
     x="420.88135"
     y="338.33701"
     id="tspan836"
     style="font-weight:bold;font-size:85.33333588px;fill:#338000;fill-opacity:1;">Codes</tspan></text>
</svg>